<mxfile host="app.diagrams.net" modified="2021-05-28T14:16:50.139Z" agent="5.0 (Windows NT 10.0; Win64; x64) AppleWebKit/537.36 (KHTML, like Gecko) Chrome/90.0.4430.212 Safari/537.36" etag="FIXoAJOP3in4GTFDqWAH" version="14.6.13" type="github">
  <diagram name="Page-1" id="c7488fd3-1785-93aa-aadb-54a6760d102a">
    <mxGraphModel dx="3470" dy="923" grid="1" gridSize="10" guides="1" tooltips="1" connect="1" arrows="1" fold="1" page="1" pageScale="1" pageWidth="1100" pageHeight="850" background="none" math="0" shadow="0">
      <root>
        <mxCell id="0" />
        <mxCell id="1" parent="0" />
        <mxCell id="E3m8i0MyvI8wD6wzEJ4B-102" style="edgeStyle=orthogonalEdgeStyle;rounded=0;orthogonalLoop=1;jettySize=auto;html=1;entryX=0;entryY=0;entryDx=0;entryDy=0;exitX=0.5;exitY=1;exitDx=0;exitDy=0;" edge="1" parent="1" source="E3m8i0MyvI8wD6wzEJ4B-13" target="E3m8i0MyvI8wD6wzEJ4B-40">
          <mxGeometry relative="1" as="geometry" />
        </mxCell>
        <mxCell id="E3m8i0MyvI8wD6wzEJ4B-13" value="Master" style="rounded=1;whiteSpace=wrap;html=1;fillColor=#d5e8d4;strokeColor=#82b366;" vertex="1" parent="1">
          <mxGeometry x="-828.5" y="229" width="120" height="60" as="geometry" />
        </mxCell>
        <mxCell id="E3m8i0MyvI8wD6wzEJ4B-67" style="edgeStyle=orthogonalEdgeStyle;rounded=0;orthogonalLoop=1;jettySize=auto;html=1;entryX=0.5;entryY=1;entryDx=0;entryDy=0;exitX=1;exitY=0.5;exitDx=0;exitDy=0;" edge="1" parent="1" source="E3m8i0MyvI8wD6wzEJ4B-69" target="E3m8i0MyvI8wD6wzEJ4B-68">
          <mxGeometry relative="1" as="geometry">
            <mxPoint x="-373" y="150" as="targetPoint" />
          </mxGeometry>
        </mxCell>
        <mxCell id="E3m8i0MyvI8wD6wzEJ4B-77" value="No" style="edgeLabel;html=1;align=center;verticalAlign=middle;resizable=0;points=[];" vertex="1" connectable="0" parent="E3m8i0MyvI8wD6wzEJ4B-67">
          <mxGeometry x="-0.0692" y="4" relative="1" as="geometry">
            <mxPoint x="-25" y="4" as="offset" />
          </mxGeometry>
        </mxCell>
        <mxCell id="E3m8i0MyvI8wD6wzEJ4B-73" style="edgeStyle=orthogonalEdgeStyle;rounded=0;orthogonalLoop=1;jettySize=auto;html=1;entryX=0.5;entryY=0;entryDx=0;entryDy=0;exitX=0.5;exitY=1;exitDx=0;exitDy=0;" edge="1" parent="1" source="E3m8i0MyvI8wD6wzEJ4B-14" target="E3m8i0MyvI8wD6wzEJ4B-69">
          <mxGeometry relative="1" as="geometry" />
        </mxCell>
        <mxCell id="E3m8i0MyvI8wD6wzEJ4B-14" value="Standalone" style="rounded=1;whiteSpace=wrap;html=1;fillColor=#d5e8d4;strokeColor=#82b366;" vertex="1" parent="1">
          <mxGeometry x="-533" y="119" width="124" height="60" as="geometry" />
        </mxCell>
        <mxCell id="E3m8i0MyvI8wD6wzEJ4B-20" style="edgeStyle=orthogonalEdgeStyle;rounded=0;orthogonalLoop=1;jettySize=auto;html=1;exitX=0.5;exitY=1;exitDx=0;exitDy=0;entryX=0.5;entryY=0;entryDx=0;entryDy=0;" edge="1" parent="1" source="E3m8i0MyvI8wD6wzEJ4B-15" target="E3m8i0MyvI8wD6wzEJ4B-18">
          <mxGeometry relative="1" as="geometry" />
        </mxCell>
        <mxCell id="E3m8i0MyvI8wD6wzEJ4B-15" value="Request Form" style="rounded=1;whiteSpace=wrap;html=1;fillColor=#f9f7ed;strokeColor=#36393d;" vertex="1" parent="1">
          <mxGeometry x="-828" y="40" width="120" height="60" as="geometry" />
        </mxCell>
        <mxCell id="E3m8i0MyvI8wD6wzEJ4B-21" value="Yes" style="edgeStyle=orthogonalEdgeStyle;rounded=0;orthogonalLoop=1;jettySize=auto;html=1;exitX=0.5;exitY=1;exitDx=0;exitDy=0;entryX=0.5;entryY=0;entryDx=0;entryDy=0;" edge="1" parent="1" source="E3m8i0MyvI8wD6wzEJ4B-18" target="E3m8i0MyvI8wD6wzEJ4B-13">
          <mxGeometry relative="1" as="geometry" />
        </mxCell>
        <mxCell id="E3m8i0MyvI8wD6wzEJ4B-22" style="edgeStyle=orthogonalEdgeStyle;rounded=0;orthogonalLoop=1;jettySize=auto;html=1;exitX=1;exitY=0.5;exitDx=0;exitDy=0;entryX=0;entryY=0.5;entryDx=0;entryDy=0;" edge="1" parent="1" source="E3m8i0MyvI8wD6wzEJ4B-18" target="E3m8i0MyvI8wD6wzEJ4B-14">
          <mxGeometry relative="1" as="geometry" />
        </mxCell>
        <mxCell id="E3m8i0MyvI8wD6wzEJ4B-23" value="No" style="edgeLabel;html=1;align=center;verticalAlign=middle;resizable=0;points=[];" vertex="1" connectable="0" parent="E3m8i0MyvI8wD6wzEJ4B-22">
          <mxGeometry x="0.2159" y="1" relative="1" as="geometry">
            <mxPoint x="-13" y="1" as="offset" />
          </mxGeometry>
        </mxCell>
        <mxCell id="E3m8i0MyvI8wD6wzEJ4B-18" value="Is Master" style="rhombus;html=1;labelPosition=left;verticalLabelPosition=middle;align=right;verticalAlign=middle;fillColor=#fff2cc;strokeColor=#d6b656;" vertex="1" parent="1">
          <mxGeometry x="-791" y="130" width="45" height="40" as="geometry" />
        </mxCell>
        <mxCell id="E3m8i0MyvI8wD6wzEJ4B-34" value="Child 1" style="swimlane;fontStyle=0;childLayout=stackLayout;horizontal=1;startSize=26;horizontalStack=0;resizeParent=1;resizeParentMax=0;resizeLast=0;collapsible=1;marginBottom=0;movable=1;resizable=1;rotatable=1;deletable=1;editable=1;connectable=1;fillColor=#dae8fc;strokeColor=#6c8ebf;" vertex="1" parent="1">
          <mxGeometry x="-790" y="687" width="140" height="130" as="geometry">
            <mxRectangle x="-500" y="365" width="50" height="26" as="alternateBounds" />
          </mxGeometry>
        </mxCell>
        <mxCell id="E3m8i0MyvI8wD6wzEJ4B-35" value="Source System Name" style="text;strokeColor=#6c8ebf;fillColor=#dae8fc;align=left;verticalAlign=top;spacingLeft=4;spacingRight=4;overflow=hidden;rotatable=0;points=[[0,0.5],[1,0.5]];portConstraint=eastwest;" vertex="1" parent="E3m8i0MyvI8wD6wzEJ4B-34">
          <mxGeometry y="26" width="140" height="26" as="geometry" />
        </mxCell>
        <mxCell id="E3m8i0MyvI8wD6wzEJ4B-36" value="Source System Id" style="text;strokeColor=#6c8ebf;fillColor=#dae8fc;align=left;verticalAlign=top;spacingLeft=4;spacingRight=4;overflow=hidden;rotatable=0;points=[[0,0.5],[1,0.5]];portConstraint=eastwest;" vertex="1" parent="E3m8i0MyvI8wD6wzEJ4B-34">
          <mxGeometry y="52" width="140" height="26" as="geometry" />
        </mxCell>
        <mxCell id="E3m8i0MyvI8wD6wzEJ4B-37" value="XCM ID or XU ID" style="text;strokeColor=#6c8ebf;fillColor=#dae8fc;align=left;verticalAlign=top;spacingLeft=4;spacingRight=4;overflow=hidden;rotatable=0;points=[[0,0.5],[1,0.5]];portConstraint=eastwest;" vertex="1" parent="E3m8i0MyvI8wD6wzEJ4B-34">
          <mxGeometry y="78" width="140" height="26" as="geometry" />
        </mxCell>
        <mxCell id="E3m8i0MyvI8wD6wzEJ4B-38" value="Current Account Name" style="text;strokeColor=#6c8ebf;fillColor=#dae8fc;align=left;verticalAlign=top;spacingLeft=4;spacingRight=4;overflow=hidden;rotatable=0;points=[[0,0.5],[1,0.5]];portConstraint=eastwest;" vertex="1" parent="E3m8i0MyvI8wD6wzEJ4B-34">
          <mxGeometry y="104" width="140" height="26" as="geometry" />
        </mxCell>
        <mxCell id="E3m8i0MyvI8wD6wzEJ4B-64" style="edgeStyle=orthogonalEdgeStyle;rounded=0;orthogonalLoop=1;jettySize=auto;html=1;entryX=0.5;entryY=0;entryDx=0;entryDy=0;exitX=0.5;exitY=1;exitDx=0;exitDy=0;" edge="1" parent="1" source="E3m8i0MyvI8wD6wzEJ4B-40" target="E3m8i0MyvI8wD6wzEJ4B-34">
          <mxGeometry relative="1" as="geometry" />
        </mxCell>
        <mxCell id="E3m8i0MyvI8wD6wzEJ4B-65" style="edgeStyle=orthogonalEdgeStyle;rounded=0;orthogonalLoop=1;jettySize=auto;html=1;entryX=0.5;entryY=0;entryDx=0;entryDy=0;" edge="1" parent="1" source="E3m8i0MyvI8wD6wzEJ4B-40" target="E3m8i0MyvI8wD6wzEJ4B-51">
          <mxGeometry relative="1" as="geometry" />
        </mxCell>
        <mxCell id="E3m8i0MyvI8wD6wzEJ4B-66" style="edgeStyle=orthogonalEdgeStyle;rounded=0;orthogonalLoop=1;jettySize=auto;html=1;entryX=0.554;entryY=-0.023;entryDx=0;entryDy=0;entryPerimeter=0;" edge="1" parent="1" source="E3m8i0MyvI8wD6wzEJ4B-40" target="E3m8i0MyvI8wD6wzEJ4B-56">
          <mxGeometry relative="1" as="geometry" />
        </mxCell>
        <mxCell id="E3m8i0MyvI8wD6wzEJ4B-40" value="Request Action" style="swimlane;fontStyle=0;childLayout=stackLayout;horizontal=1;startSize=26;horizontalStack=0;resizeParent=1;resizeParentMax=0;resizeLast=0;collapsible=1;marginBottom=0;movable=1;resizable=1;rotatable=1;deletable=1;editable=1;connectable=1;fillColor=#e1d5e7;strokeColor=#9673a6;" vertex="1" parent="1">
          <mxGeometry x="-680" y="367" width="240" height="260" as="geometry">
            <mxRectangle x="-960" y="410" width="50" height="26" as="alternateBounds" />
          </mxGeometry>
        </mxCell>
        <mxCell id="E3m8i0MyvI8wD6wzEJ4B-41" value="MOVE_ACC_TO_ANOTHER_XU" style="text;strokeColor=#9673a6;fillColor=#e1d5e7;align=left;verticalAlign=top;spacingLeft=4;spacingRight=4;overflow=hidden;rotatable=0;points=[[0,0.5],[1,0.5]];portConstraint=eastwest;" vertex="1" parent="E3m8i0MyvI8wD6wzEJ4B-40">
          <mxGeometry y="26" width="240" height="26" as="geometry" />
        </mxCell>
        <mxCell id="E3m8i0MyvI8wD6wzEJ4B-42" value="MOVE_ALL_FROM_XU1_TO_XU2" style="text;strokeColor=#9673a6;fillColor=#e1d5e7;align=left;verticalAlign=top;spacingLeft=4;spacingRight=4;overflow=hidden;rotatable=0;points=[[0,0.5],[1,0.5]];portConstraint=eastwest;" vertex="1" parent="E3m8i0MyvI8wD6wzEJ4B-40">
          <mxGeometry y="52" width="240" height="26" as="geometry" />
        </mxCell>
        <mxCell id="E3m8i0MyvI8wD6wzEJ4B-43" value="CHANGE_UNMANAGED_TO_MANAGED_XU" style="text;strokeColor=#9673a6;fillColor=#e1d5e7;align=left;verticalAlign=top;spacingLeft=4;spacingRight=4;overflow=hidden;rotatable=0;points=[[0,0.5],[1,0.5]];portConstraint=eastwest;" vertex="1" parent="E3m8i0MyvI8wD6wzEJ4B-40">
          <mxGeometry y="78" width="240" height="26" as="geometry" />
        </mxCell>
        <mxCell id="E3m8i0MyvI8wD6wzEJ4B-44" value="CREATE_NEW_XU" style="text;strokeColor=#9673a6;fillColor=#e1d5e7;align=left;verticalAlign=top;spacingLeft=4;spacingRight=4;overflow=hidden;rotatable=0;points=[[0,0.5],[1,0.5]];portConstraint=eastwest;" vertex="1" parent="E3m8i0MyvI8wD6wzEJ4B-40">
          <mxGeometry y="104" width="240" height="26" as="geometry" />
        </mxCell>
        <mxCell id="E3m8i0MyvI8wD6wzEJ4B-45" value="CHANGE_XU_CLASS_CODE" style="text;strokeColor=#9673a6;fillColor=#e1d5e7;align=left;verticalAlign=top;spacingLeft=4;spacingRight=4;overflow=hidden;rotatable=0;points=[[0,0.5],[1,0.5]];portConstraint=eastwest;" vertex="1" parent="E3m8i0MyvI8wD6wzEJ4B-40">
          <mxGeometry y="130" width="240" height="26" as="geometry" />
        </mxCell>
        <mxCell id="E3m8i0MyvI8wD6wzEJ4B-46" value="CHANGE_ACC_NAME" style="text;strokeColor=#9673a6;fillColor=#e1d5e7;align=left;verticalAlign=top;spacingLeft=4;spacingRight=4;overflow=hidden;rotatable=0;points=[[0,0.5],[1,0.5]];portConstraint=eastwest;" vertex="1" parent="E3m8i0MyvI8wD6wzEJ4B-40">
          <mxGeometry y="156" width="240" height="26" as="geometry" />
        </mxCell>
        <mxCell id="E3m8i0MyvI8wD6wzEJ4B-47" value="CHANGE_ACC_ADDRESS" style="text;strokeColor=#9673a6;fillColor=#e1d5e7;align=left;verticalAlign=top;spacingLeft=4;spacingRight=4;overflow=hidden;rotatable=0;points=[[0,0.5],[1,0.5]];portConstraint=eastwest;" vertex="1" parent="E3m8i0MyvI8wD6wzEJ4B-40">
          <mxGeometry y="182" width="240" height="26" as="geometry" />
        </mxCell>
        <mxCell id="E3m8i0MyvI8wD6wzEJ4B-48" value="NO_XCM_ID_UNFLAG" style="text;strokeColor=#9673a6;fillColor=#e1d5e7;align=left;verticalAlign=top;spacingLeft=4;spacingRight=4;overflow=hidden;rotatable=0;points=[[0,0.5],[1,0.5]];portConstraint=eastwest;" vertex="1" parent="E3m8i0MyvI8wD6wzEJ4B-40">
          <mxGeometry y="208" width="240" height="26" as="geometry" />
        </mxCell>
        <mxCell id="E3m8i0MyvI8wD6wzEJ4B-49" value="MERGE_XCM_ID" style="text;strokeColor=#9673a6;fillColor=#e1d5e7;align=left;verticalAlign=top;spacingLeft=4;spacingRight=4;overflow=hidden;rotatable=0;points=[[0,0.5],[1,0.5]];portConstraint=eastwest;" vertex="1" parent="E3m8i0MyvI8wD6wzEJ4B-40">
          <mxGeometry y="234" width="240" height="26" as="geometry" />
        </mxCell>
        <mxCell id="E3m8i0MyvI8wD6wzEJ4B-51" value="Child 2" style="swimlane;fontStyle=0;childLayout=stackLayout;horizontal=1;startSize=26;horizontalStack=0;resizeParent=1;resizeParentMax=0;resizeLast=0;collapsible=1;marginBottom=0;movable=1;resizable=1;rotatable=1;deletable=1;editable=1;connectable=1;fillColor=#dae8fc;strokeColor=#6c8ebf;" vertex="1" parent="1">
          <mxGeometry x="-630" y="687" width="140" height="130" as="geometry">
            <mxRectangle x="-500" y="365" width="50" height="26" as="alternateBounds" />
          </mxGeometry>
        </mxCell>
        <mxCell id="E3m8i0MyvI8wD6wzEJ4B-52" value="Source System Name" style="text;strokeColor=#6c8ebf;fillColor=#dae8fc;align=left;verticalAlign=top;spacingLeft=4;spacingRight=4;overflow=hidden;rotatable=0;points=[[0,0.5],[1,0.5]];portConstraint=eastwest;" vertex="1" parent="E3m8i0MyvI8wD6wzEJ4B-51">
          <mxGeometry y="26" width="140" height="26" as="geometry" />
        </mxCell>
        <mxCell id="E3m8i0MyvI8wD6wzEJ4B-53" value="Source System Id" style="text;strokeColor=#6c8ebf;fillColor=#dae8fc;align=left;verticalAlign=top;spacingLeft=4;spacingRight=4;overflow=hidden;rotatable=0;points=[[0,0.5],[1,0.5]];portConstraint=eastwest;" vertex="1" parent="E3m8i0MyvI8wD6wzEJ4B-51">
          <mxGeometry y="52" width="140" height="26" as="geometry" />
        </mxCell>
        <mxCell id="E3m8i0MyvI8wD6wzEJ4B-54" value="XCM ID or XU ID" style="text;strokeColor=#6c8ebf;fillColor=#dae8fc;align=left;verticalAlign=top;spacingLeft=4;spacingRight=4;overflow=hidden;rotatable=0;points=[[0,0.5],[1,0.5]];portConstraint=eastwest;" vertex="1" parent="E3m8i0MyvI8wD6wzEJ4B-51">
          <mxGeometry y="78" width="140" height="26" as="geometry" />
        </mxCell>
        <mxCell id="E3m8i0MyvI8wD6wzEJ4B-55" value="Current Account Name" style="text;strokeColor=#6c8ebf;fillColor=#dae8fc;align=left;verticalAlign=top;spacingLeft=4;spacingRight=4;overflow=hidden;rotatable=0;points=[[0,0.5],[1,0.5]];portConstraint=eastwest;" vertex="1" parent="E3m8i0MyvI8wD6wzEJ4B-51">
          <mxGeometry y="104" width="140" height="26" as="geometry" />
        </mxCell>
        <mxCell id="E3m8i0MyvI8wD6wzEJ4B-56" value="Child 3" style="swimlane;fontStyle=0;childLayout=stackLayout;horizontal=1;startSize=26;horizontalStack=0;resizeParent=1;resizeParentMax=0;resizeLast=0;collapsible=1;marginBottom=0;movable=1;resizable=1;rotatable=1;deletable=1;editable=1;connectable=1;fillColor=#dae8fc;strokeColor=#6c8ebf;" vertex="1" parent="1">
          <mxGeometry x="-472" y="687" width="140" height="130" as="geometry">
            <mxRectangle x="-500" y="365" width="50" height="26" as="alternateBounds" />
          </mxGeometry>
        </mxCell>
        <mxCell id="E3m8i0MyvI8wD6wzEJ4B-57" value="Source System Name" style="text;strokeColor=#6c8ebf;fillColor=#dae8fc;align=left;verticalAlign=top;spacingLeft=4;spacingRight=4;overflow=hidden;rotatable=0;points=[[0,0.5],[1,0.5]];portConstraint=eastwest;" vertex="1" parent="E3m8i0MyvI8wD6wzEJ4B-56">
          <mxGeometry y="26" width="140" height="26" as="geometry" />
        </mxCell>
        <mxCell id="E3m8i0MyvI8wD6wzEJ4B-58" value="Source System Id" style="text;strokeColor=#6c8ebf;fillColor=#dae8fc;align=left;verticalAlign=top;spacingLeft=4;spacingRight=4;overflow=hidden;rotatable=0;points=[[0,0.5],[1,0.5]];portConstraint=eastwest;" vertex="1" parent="E3m8i0MyvI8wD6wzEJ4B-56">
          <mxGeometry y="52" width="140" height="26" as="geometry" />
        </mxCell>
        <mxCell id="E3m8i0MyvI8wD6wzEJ4B-59" value="XCM ID or XU ID" style="text;strokeColor=#6c8ebf;fillColor=#dae8fc;align=left;verticalAlign=top;spacingLeft=4;spacingRight=4;overflow=hidden;rotatable=0;points=[[0,0.5],[1,0.5]];portConstraint=eastwest;" vertex="1" parent="E3m8i0MyvI8wD6wzEJ4B-56">
          <mxGeometry y="78" width="140" height="26" as="geometry" />
        </mxCell>
        <mxCell id="E3m8i0MyvI8wD6wzEJ4B-60" value="Current Account Name" style="text;strokeColor=#6c8ebf;fillColor=#dae8fc;align=left;verticalAlign=top;spacingLeft=4;spacingRight=4;overflow=hidden;rotatable=0;points=[[0,0.5],[1,0.5]];portConstraint=eastwest;" vertex="1" parent="E3m8i0MyvI8wD6wzEJ4B-56">
          <mxGeometry y="104" width="140" height="26" as="geometry" />
        </mxCell>
        <mxCell id="E3m8i0MyvI8wD6wzEJ4B-68" value="Standard process" style="shape=parallelogram;perimeter=parallelogramPerimeter;whiteSpace=wrap;html=1;fixedSize=1;fillColor=#ffcc99;strokeColor=#36393d;" vertex="1" parent="1">
          <mxGeometry x="-293" y="140" width="124" height="60" as="geometry" />
        </mxCell>
        <mxCell id="E3m8i0MyvI8wD6wzEJ4B-82" value="Yes" style="edgeStyle=orthogonalEdgeStyle;rounded=0;orthogonalLoop=1;jettySize=auto;html=1;entryX=0.5;entryY=0;entryDx=0;entryDy=0;" edge="1" parent="1" source="E3m8i0MyvI8wD6wzEJ4B-69" target="E3m8i0MyvI8wD6wzEJ4B-40">
          <mxGeometry relative="1" as="geometry">
            <mxPoint x="-384.5" y="350" as="targetPoint" />
          </mxGeometry>
        </mxCell>
        <mxCell id="E3m8i0MyvI8wD6wzEJ4B-69" value="Master Tagged" style="rhombus;html=1;labelPosition=left;verticalLabelPosition=middle;align=right;verticalAlign=middle;fillColor=#fff2cc;strokeColor=#d6b656;" vertex="1" parent="1">
          <mxGeometry x="-495.5" y="249" width="49" height="40" as="geometry" />
        </mxCell>
      </root>
    </mxGraphModel>
  </diagram>
</mxfile>
